<svg xmlns="http://www.w3.org/2000/svg" width="64" height="64" viewBox="80 80 240 240" fill="none"><path d="M136.444 221.556C123.558 225.213 115.104 231.625 109.535 238.032C114.869 233.364 122.014 229.08 131.652 226.348C141.51 223.554 149.92 223.574 156.869 224.915V219.481C150.941 218.939 144.145 219.371 136.444 221.556ZM108.946 175.876L61.0895 188.484C61.0895 188.484 61.9617 189.716 63.5767 191.36L104.153 180.668C104.153 180.668 103.578 188.077 98.5847 194.705C108.03 187.559 108.946 175.876 108.946 175.876ZM149.005 288.347C81.6582 306.486 46.0272 228.438 35.2396 187.928C30.2556 169.229 28.0799 155.067 27.5 145.928C27.4377 144.979 27.4665 144.179 27.5336 143.446C24.04 143.657 22.3674 145.473 22.7077 150.721C23.2876 159.855 25.4633 174.016 30.4473 192.721C41.2301 233.225 76.8659 311.273 144.213 293.134C158.872 289.185 169.885 281.992 178.152 272.81C170.532 279.692 160.995 285.112 149.005 288.347Z" fill="#2D4552"/><path d="M341.786 129.174C329.345 131.355 299.498 134.072 262.612 124.185C225.716 114.304 201.236 97.0224 191.537 88.8994C177.788 77.3834 171.74 69.3802 165.788 81.4857C160.526 92.163 153.797 109.54 147.284 133.866C133.171 186.543 122.623 297.706 209.867 321.098C297.093 344.47 343.53 242.92 357.644 190.238C364.157 165.917 367.013 147.5 367.799 135.625C368.695 122.173 359.455 126.078 341.786 129.174Z" fill="#2EAD33"/><path d="M161.661 262.296V239.863L99.3324 257.537C99.3324 257.537 103.938 230.777 136.444 221.556C146.302 218.762 154.713 218.781 161.661 220.123V128.11H192.869C189.471 117.61 186.184 109.526 183.423 103.909C178.856 94.612 174.174 100.775 163.545 109.665C156.059 115.919 137.139 129.261 108.668 136.933C80.1966 144.61 57.179 142.574 47.5752 140.911C33.9601 138.562 26.8387 135.572 27.5049 145.928C28.0847 155.062 30.2605 169.224 35.2445 187.928C46.0272 228.433 81.663 306.481 149.01 288.342C166.602 283.602 179.019 274.233 187.626 262.291H161.661Z" fill="#E2574C"/></svg>
